<svg xmlns="http://www.w3.org/2000/svg" viewBox="0 0 147.9 43"><defs><style>.cls-1{fill:#eee;}</style></defs><title>applestore</title><g id="Layer_2" data-name="Layer 2"><g id="Layer_1-2" data-name="Layer 1"><g id="Layer_1-3" data-name="Layer 1"><path class="cls-1" d="M143.2,43H4.7A4.69,4.69,0,0,1,0,38.3V4.7A4.69,4.69,0,0,1,4.7,0H143.2a4.69,4.69,0,0,1,4.7,4.7V38.3A4.69,4.69,0,0,1,143.2,43ZM4.6,1A3.69,3.69,0,0,0,.9,4.7V38.3A3.76,3.76,0,0,0,4.6,42H143.1a3.69,3.69,0,0,0,3.7-3.7V4.7A3.69,3.69,0,0,0,143.1,1Z"/></g><g id="Layer_2-2" data-name="Layer 2"><path class="cls-1" d="M36,15.9a6.55,6.55,0,0,0-5.1-2.8c-2.2-.2-4.2,1.3-5.3,1.3s-2.8-1.3-4.6-1.2a6.75,6.75,0,0,0-5.7,3.5C12.8,21,14.7,27.4,17,30.8c1.2,1.7,2.6,3.6,4.4,3.5s2.4-1.1,4.6-1.1,2.8,1.1,4.6,1.1,3.1-1.7,4.3-3.4a18.26,18.26,0,0,0,2-4,6.12,6.12,0,0,1-3.7-5.7A5.86,5.86,0,0,1,36,15.9Z"/><path class="cls-1" d="M29.5,10.8a6,6,0,0,0,1.4-4.5,6.8,6.8,0,0,0-4.1,2.1,5.82,5.82,0,0,0-1.5,4.3A4.94,4.94,0,0,0,29.5,10.8Z"/><path class="cls-1" d="M54.9,29.9l1.4,4.3h2.5L54.1,19.6H51.2L46.5,34.2h2.4l1.3-4.3Zm-3.1-5.7c.3-1.2.5-2.1.7-2.8h0c.4,1.4.6,2.4.7,2.8L54.4,28H50.5Z"/><path class="cls-1" d="M63.1,38.5V32.9h0a3.22,3.22,0,0,0,3,1.5A4.16,4.16,0,0,0,69.3,33a5.92,5.92,0,0,0,1.5-4.3,6.05,6.05,0,0,0-1.2-3.9,3.88,3.88,0,0,0-3.1-1.5A3.66,3.66,0,0,0,63,25.2h0l-.1-1.7H60.8c.1,1.2.1,2.3.1,3.5V38.5Zm0-10.4a2,2,0,0,1,.1-.7,2.9,2.9,0,0,1,.9-1.5,2.45,2.45,0,0,1,1.6-.6,2.22,2.22,0,0,1,2,1,4.09,4.09,0,0,1,.7,2.5,4.53,4.53,0,0,1-.7,2.7,2.39,2.39,0,0,1-2.1,1,2.34,2.34,0,0,1-1.8-.8,2.64,2.64,0,0,1-.7-1.9Z"/><path class="cls-1" d="M75.2,38.5V32.9h0a3.22,3.22,0,0,0,3,1.5A4.16,4.16,0,0,0,81.4,33a5.92,5.92,0,0,0,1.5-4.3,6.05,6.05,0,0,0-1.2-3.9,3.88,3.88,0,0,0-3.1-1.5,3.65,3.65,0,0,0-3.5,1.9h0L75,23.5H72.9c.1,1.2.1,2.3.1,3.5V38.5Zm0-10.4a2,2,0,0,1,.1-.7,2.37,2.37,0,0,1,.9-1.5,2.45,2.45,0,0,1,1.6-.6,2.22,2.22,0,0,1,2,1,4.09,4.09,0,0,1,.7,2.5,4.53,4.53,0,0,1-.7,2.7,2.39,2.39,0,0,1-2.1,1,2.2,2.2,0,0,1-1.8-.8,2.64,2.64,0,0,1-.7-1.9Z"/><path class="cls-1" d="M91.3,32.4a6.65,6.65,0,0,1-3.4-.9l-.5,2a7.13,7.13,0,0,0,3.8.9,5.68,5.68,0,0,0,4-1.3,3.8,3.8,0,0,0,1.3-3,3.49,3.49,0,0,0-.9-2.5,6.78,6.78,0,0,0-2.8-1.8,9.58,9.58,0,0,1-2.1-1.1,2.1,2.1,0,0,1-.7-1.4,1.61,1.61,0,0,1,.6-1.3,2.88,2.88,0,0,1,1.9-.6,5.3,5.3,0,0,1,2.8.7l.6-1.9a6.71,6.71,0,0,0-3.3-.7A5.22,5.22,0,0,0,89,20.7a3.8,3.8,0,0,0-1.3,3c0,1.8,1.3,3.2,3.8,4.2a5.26,5.26,0,0,1,2,1.1,2,2,0,0,1,.6,1.5,1.86,1.86,0,0,1-.7,1.6A9.5,9.5,0,0,1,91.3,32.4Z"/><path class="cls-1" d="M99.3,21.7v1.9H97.8v1.8h1.5v5.3a4.07,4.07,0,0,0,.8,2.8,2.61,2.61,0,0,0,2.2.8,4.18,4.18,0,0,0,1.8-.3l-.1-1.8a3.08,3.08,0,0,1-1,.1c-.9,0-1.4-.7-1.4-2V25.2h2.6V23.4h-2.6V20.8Z"/><path class="cls-1" d="M114.4,32.8a5.9,5.9,0,0,0,1.4-4,5.58,5.58,0,0,0-1.3-3.9,4.82,4.82,0,0,0-3.7-1.5A4.64,4.64,0,0,0,107,25a5.9,5.9,0,0,0-1.4,4,5.64,5.64,0,0,0,1.4,3.9,4.68,4.68,0,0,0,3.7,1.5A4.57,4.57,0,0,0,114.4,32.8Zm-5.9-1.4a4.87,4.87,0,0,1-.6-2.5,4.63,4.63,0,0,1,.6-2.5,2.45,2.45,0,0,1,2.1-1.3,2.26,2.26,0,0,1,2.1,1.3,4.87,4.87,0,0,1,.6,2.5,4.87,4.87,0,0,1-.6,2.5,2.35,2.35,0,0,1-4.2,0Z"/><path class="cls-1" d="M120.2,34.2V28.7a3.7,3.7,0,0,1,.6-2.1,2.2,2.2,0,0,1,1.9-.9,1.48,1.48,0,0,1,.7.1V23.6h-.6a2.72,2.72,0,0,0-1.7.6,4.34,4.34,0,0,0-1.2,1.7h-.1l-.1-2h-2c.1,1,.1,2.1.1,3.3v7.2h2.4Z"/><path class="cls-1" d="M133.9,28.4a5.82,5.82,0,0,0-.9-3.3,4,4,0,0,0-3.4-1.7,4.65,4.65,0,0,0-3.7,1.7,6,6,0,0,0-1.3,4A5.64,5.64,0,0,0,126,33a4.84,4.84,0,0,0,3.8,1.4,7.55,7.55,0,0,0,3.5-.7l-.4-1.6a8.68,8.68,0,0,1-2.8.5,3.51,3.51,0,0,1-2.3-.7,2.72,2.72,0,0,1-1-2.4h7C133.8,29.2,133.9,28.8,133.9,28.4Zm-2.3-.6h-4.9a3.59,3.59,0,0,1,.7-1.8,2.42,2.42,0,0,1,1.9-1,2.06,2.06,0,0,1,1.9,1,3.42,3.42,0,0,1,.4,1.8Z"/><path class="cls-1" d="M53.7,10.5a3.53,3.53,0,0,0-1.1-2.7A4.45,4.45,0,0,0,49.8,7c-.7,0-1.4.1-2,.1v7.1a8.62,8.62,0,0,0,1.7.1,5,5,0,0,0,3.1-.9A3.69,3.69,0,0,0,53.7,10.5Zm-1.9,2.2a2.72,2.72,0,0,1-2,.7H49V8a2.77,2.77,0,0,1,.9-.1,2.23,2.23,0,0,1,1.9.7,2.74,2.74,0,0,1,.7,1.9A2.92,2.92,0,0,1,51.8,12.7Z"/><path class="cls-1" d="M59.5,13.6a2.72,2.72,0,0,0,.7-2,2.57,2.57,0,0,0-2.5-2.7,2.56,2.56,0,0,0-1.9.8,2.72,2.72,0,0,0-.7,2,2.57,2.57,0,0,0,2.5,2.7A2.56,2.56,0,0,0,59.5,13.6Zm-2.9-.7a2.38,2.38,0,0,1-.3-1.2,2.77,2.77,0,0,1,.3-1.3,1.15,1.15,0,0,1,1.1-.6,1.1,1.1,0,0,1,1,.6,2.55,2.55,0,0,1,0,2.4,1.1,1.1,0,0,1-1,.6A.78.78,0,0,1,56.6,12.9Z"/><path class="cls-1" d="M68.8,9.1Z"/><path class="cls-1" d="M64.6,12a8.47,8.47,0,0,0,.4-1.7h0a10.46,10.46,0,0,0,.4,1.7l.7,2.3h1.1l1.6-5.2H67.7l-.6,2.4a13.63,13.63,0,0,0-.4,1.7h0a13.64,13.64,0,0,0-.4-1.7l-.7-2.4h-.9L64,11.6c-.2.7-.3,1.2-.4,1.7h0a13.64,13.64,0,0,0-.4-1.7l-.6-2.5H61.4l1.5,5.2H64Z"/><path class="cls-1" d="M74.7,14.3V11.2a2.2,2.2,0,0,0-.6-1.7A1.66,1.66,0,0,0,72.9,9a1.94,1.94,0,0,0-1.6.9h0l-.1-.8h-1v5.2h1.1V11.2a1.61,1.61,0,0,1,.3-.9.91.91,0,0,1,.8-.4c.7,0,1,.5,1,1.4v3Z"/><rect class="cls-1" x="76.7" y="6.7" width="1.1" height="7.6"/><path class="cls-1" d="M84,13.6a2.72,2.72,0,0,0,.7-2,2.57,2.57,0,0,0-2.5-2.7,2.56,2.56,0,0,0-1.9.8,2.72,2.72,0,0,0-.7,2,2.49,2.49,0,0,0,.7,1.9,2.34,2.34,0,0,0,1.8.8A2.56,2.56,0,0,0,84,13.6Zm-2.9-.7a2.38,2.38,0,0,1-.3-1.2,2.77,2.77,0,0,1,.3-1.3,1.15,1.15,0,0,1,1.1-.6,1.1,1.1,0,0,1,1,.6,2.55,2.55,0,0,1,0,2.4,1.1,1.1,0,0,1-1,.6A.78.78,0,0,1,81.1,12.9Z"/><path class="cls-1" d="M86.8,11.4a1.64,1.64,0,0,0-.8,1.5,1.5,1.5,0,0,0,.4,1.1,1.66,1.66,0,0,0,1.2.5,1.58,1.58,0,0,0,1.5-.7h0l.1.6h1c0-.3-.1-.7-.1-1.2V11.3a1.83,1.83,0,0,0-2-2.1,3.42,3.42,0,0,0-1.8.4l.2.8a2,2,0,0,1,1.3-.4c.7,0,1.1.3,1.1,1v.1A2.79,2.79,0,0,0,86.8,11.4Zm2.2.3v1a.82.82,0,0,1-.4.6,1,1,0,0,1-.7.2,1.42,1.42,0,0,1-.6-.2.85.85,0,0,1-.2-.6C87.1,12,87.7,11.7,89,11.7Z"/><path class="cls-1" d="M95.5,6.7v3h0A1.58,1.58,0,0,0,94,9a2,2,0,0,0-1.6.7,3.22,3.22,0,0,0-.7,2,2.88,2.88,0,0,0,.6,1.9,1.86,1.86,0,0,0,1.6.7,1.76,1.76,0,0,0,1.7-1h0l.1.8h1V6.5H95.5Zm0,5.4a1.22,1.22,0,0,1-.3.9,1,1,0,0,1-.9.4,1.23,1.23,0,0,1-1-.5,2.14,2.14,0,0,1-.4-1.2,1.84,1.84,0,0,1,.4-1.3,1.23,1.23,0,0,1,1-.5,1.14,1.14,0,0,1,.8.3,1,1,0,0,1,.4.7v1.2Z"/><path class="cls-1" d="M105.9,13.6a2.72,2.72,0,0,0,.7-2,2.57,2.57,0,0,0-2.5-2.7,2.56,2.56,0,0,0-1.9.8,2.72,2.72,0,0,0-.7,2,2.57,2.57,0,0,0,2.5,2.7A2.56,2.56,0,0,0,105.9,13.6Zm-2.9-.7a2.38,2.38,0,0,1-.3-1.2,2.77,2.77,0,0,1,.3-1.3,1.15,1.15,0,0,1,1.1-.6,1.1,1.1,0,0,1,1,.6,2.55,2.55,0,0,1,0,2.4,1.1,1.1,0,0,1-1,.6A.78.78,0,0,1,103,12.9Z"/><path class="cls-1" d="M112.7,14.3V11.2a2.2,2.2,0,0,0-.6-1.7,1.66,1.66,0,0,0-1.2-.5,1.94,1.94,0,0,0-1.6.9h0l-.1-.8h-1v5.2h1.2V11.2a1.61,1.61,0,0,1,.3-.9.91.91,0,0,1,.8-.4c.7,0,1,.5,1,1.4v3Z"/><path class="cls-1" d="M118.1,8.1v1h-.8V10h.8v2.6a1.81,1.81,0,0,0,.4,1.4,1.37,1.37,0,0,0,1.1.4,2.22,2.22,0,0,0,.9-.1v-.9a4.33,4.33,0,0,1-.5.1c-.4,0-.7-.3-.7-1V10h1.3V9.1h-1.3V7.8Z"/><path class="cls-1" d="M122.1,6.7v7.6h1.1V11.2c0-.2,0-.3.1-.4a1.17,1.17,0,0,1,1.1-.8c.7,0,1,.5,1,1.4v2.9h1.1V11.2a2.2,2.2,0,0,0-.6-1.7,1.66,1.66,0,0,0-1.2-.5,1.8,1.8,0,0,0-1.6.9h0V6.8h-1Z"/><path class="cls-1" d="M130.7,9a2.2,2.2,0,0,0-1.8.8,3.17,3.17,0,0,0-.6,2,2.42,2.42,0,0,0,2.6,2.6,4.31,4.31,0,0,0,1.7-.3l-.2-.8a3.18,3.18,0,0,1-1.4.2,1.37,1.37,0,0,1-1.1-.4,1.66,1.66,0,0,1-.5-1.2h3.4v-.5a2.77,2.77,0,0,0-.5-1.6A1.82,1.82,0,0,0,130.7,9Zm-1.4,2.1a3.18,3.18,0,0,1,.3-.9,1.06,1.06,0,0,1,1.8,0c.2.2.2.5.2.9Z"/></g></g></g></svg>